<?xml version="1.0" standalone="no"?>
<!DOCTYPE svg PUBLIC "-//W3C//DTD SVG 20010904//EN"
 "http://www.w3.org/TR/2001/REC-SVG-20010904/DTD/svg10.dtd">
<svg version="1.0" xmlns="http://www.w3.org/2000/svg"
 width="908.000000pt" height="1280.000000pt" viewBox="0 0 908.000000 1280.000000"
 preserveAspectRatio="xMidYMid meet">
<g transform="translate(0.000000,1280.000000) scale(0.100000,-0.100000)"
fill="#000000" stroke="none">
<path d="M3018 11969 c-185 -13 -318 -71 -451 -198 -93 -89 -163 -177 -311
-393 -193 -281 -291 -360 -728 -589 -117 -62 -249 -135 -293 -164 -175 -113
-266 -245 -327 -473 -28 -105 -30 -324 -5 -431 72 -301 428 -733 760 -922 350
-198 635 -235 1292 -165 252 27 416 33 477 16 60 -17 153 -86 187 -138 64
-100 64 -204 -1 -305 -39 -61 -100 -103 -180 -123 -113 -29 -245 -9 -553 86
-104 32 -219 66 -254 75 -280 71 -717 56 -984 -34 -336 -114 -724 -437 -891
-742 -101 -184 -134 -415 -87 -600 56 -221 184 -381 482 -604 416 -312 465
-368 669 -755 174 -330 253 -443 367 -529 325 -243 718 -228 1111 42 378 260
633 623 720 1028 50 231 49 335 -8 780 -52 405 -40 525 67 668 32 41 102 87
149 96 98 18 238 -58 296 -162 61 -109 49 -239 -57 -609 -107 -372 -131 -532
-122 -789 11 -298 92 -556 246 -790 153 -231 415 -476 620 -579 137 -69 305
-101 445 -86 155 18 267 67 484 213 76 52 160 100 185 107 37 11 49 21 62 50
9 19 25 46 35 60 l20 25 0 -38 c0 -21 13 -69 29 -105 157 -363 264 -1006 240
-1437 -40 -706 -318 -1457 -763 -2065 -128 -174 -149 -213 -143 -266 7 -69
116 -264 146 -264 13 0 112 145 203 295 414 683 646 1235 732 1735 83 485 71
1158 -30 1605 -27 120 -63 250 -168 595 -31 102 -59 208 -62 235 -5 47 -3 53
33 96 103 123 229 212 543 381 323 175 451 282 533 447 65 128 82 212 82 401
0 124 -4 168 -19 220 -68 229 -287 549 -500 729 -248 210 -519 330 -845 375
-183 26 -308 21 -630 -25 -348 -50 -456 -51 -558 -5 -79 36 -108 68 -122 134
-22 107 -10 222 35 322 36 81 71 96 219 93 93 -1 134 -8 265 -42 85 -22 223
-58 306 -80 752 -196 1242 -77 1734 419 126 127 213 241 266 350 110 222 109
518 -3 745 -76 154 -152 230 -474 472 -140 105 -281 219 -315 254 -86 91 -147
186 -285 446 -186 349 -240 430 -349 520 -82 69 -240 147 -350 174 -109 28
-294 23 -410 -11 -173 -49 -395 -178 -567 -329 -282 -248 -459 -558 -539 -946
-37 -182 -36 -334 6 -640 66 -483 51 -654 -67 -767 -49 -48 -99 -68 -166 -68
-82 0 -144 26 -202 84 -68 69 -90 137 -89 266 1 98 30 225 144 630 60 215 73
308 67 480 -20 519 -193 907 -553 1238 -245 226 -465 304 -796 281z"/>
</g>
</svg>
